<svg width="16" height="16" viewBox="0 0 16 16" fill="none" xmlns="http://www.w3.org/2000/svg">
<g clip-path="url(#clip0_432_522)">
<path d="M9.77245 8.40941L15.7342 2.44762C15.9068 2.26895 16.0023 2.02964 16.0001 1.78124C15.998 1.53285 15.8984 1.29523 15.7227 1.11958C15.5471 0.943934 15.3094 0.8443 15.061 0.842142C14.8126 0.839983 14.5733 0.935473 14.3947 1.10804L8.43287 7.06983L2.47108 1.10804C2.29241 0.935473 2.0531 0.839983 1.8047 0.842142C1.55631 0.8443 1.3187 0.943934 1.14305 1.11958C0.967396 1.29523 0.867763 1.53285 0.865604 1.78124C0.863446 2.02964 0.958935 2.26895 1.13151 2.44762L7.0933 8.40941L1.13151 14.3712C1.04102 14.4586 0.968849 14.5631 0.919199 14.6787C0.869548 14.7943 0.843414 14.9186 0.842321 15.0444C0.841228 15.1702 0.865198 15.2949 0.912833 15.4114C0.960467 15.5278 1.03081 15.6336 1.11976 15.7225C1.20871 15.8115 1.31449 15.8818 1.43092 15.9295C1.54735 15.9771 1.67209 16.0011 1.79789 16C1.92368 15.9989 2.04799 15.9727 2.16357 15.9231C2.27916 15.8734 2.38369 15.8013 2.47108 15.7108L8.43287 9.74899L14.3947 15.7108C14.5733 15.8834 14.8126 15.9788 15.061 15.9767C15.3094 15.9745 15.5471 15.8749 15.7227 15.6992C15.8984 15.5236 15.998 15.286 16.0001 15.0376C16.0023 14.7892 15.9068 14.5499 15.7342 14.3712L9.77245 8.40941Z" fill="white"/>
</g>
<defs>
<clipPath id="clip0_432_522">
<rect width="16" height="16" fill="white"/>
</clipPath>
</defs>
</svg>
