<svg width="38" height="37" viewBox="0 0 38 37" fill="none" xmlns="http://www.w3.org/2000/svg">
<g clip-path="url(#clip0_17_22)">
<path d="M36.8099 25.3637L33.2974 21.8508L26.0309 29.1173C24.7338 30.4144 23.1058 31.2601 21.3375 31.5766L25.9673 36.2064C26.3912 36.6306 27.0791 36.6306 27.5031 36.2064L36.8099 26.8998C37.2342 26.4755 37.2342 25.7877 36.8099 25.3637Z" fill="white"/>
<path d="M31.8665 20.2097C33.0909 18.9856 33.0912 16.9936 31.8682 15.7686C31.8667 15.7672 31.8653 15.7657 31.8639 15.7643C31.5613 15.462 31.2077 15.2289 30.8228 15.0731C31.1565 14.2288 31.227 12.801 30.1213 11.6951C30.1185 11.6923 30.1157 11.6892 30.1126 11.6863C29.8113 11.3871 29.4601 11.1563 29.0777 11.0013C29.4114 10.1576 29.4821 8.72953 28.3771 7.62419C28.3762 7.62335 28.3756 7.62278 28.3751 7.62221C28.0722 7.31929 27.7183 7.08567 27.3328 6.92982C27.6666 6.08554 27.737 4.65748 26.6314 3.55158C26.6311 3.55158 26.6311 3.5513 26.6308 3.5513C26.6305 3.55101 26.6302 3.55073 26.63 3.55045C25.405 2.32547 23.4121 2.32547 22.1871 3.55045L20.1278 5.60952L21.1808 6.66254C22.9355 8.41728 22.9355 11.2723 21.181 13.027C20.5905 13.6173 19.865 14.0229 19.0742 14.2161C18.885 14.9871 18.4901 15.7179 17.8885 16.3193C17.2988 16.909 16.5744 17.3143 15.7845 17.5078C15.5913 18.2974 15.1857 19.0221 14.5962 19.6115C14.0065 20.2012 13.2822 20.6066 12.4922 20.8C12.299 21.5897 11.8934 22.3143 11.304 22.9041C10.4541 23.7537 9.32383 24.2221 8.12176 24.2221C6.91969 24.2221 5.78946 23.754 4.93952 22.9038L3.88651 21.8508L0.37392 25.3636C-0.0503399 25.7879 -0.0503399 26.4755 0.37392 26.8997L9.68049 36.2063C10.1047 36.6306 10.7923 36.6303 11.2166 36.2063L17.8786 29.5446H19.7555C21.5459 29.5446 23.2291 28.8471 24.4951 27.5814L31.8665 20.2097Z" fill="white"/>
<path d="M6.47564 21.368C7.38469 22.2774 8.85885 22.2774 9.7679 21.368C10.6772 20.459 10.6772 18.9851 9.7679 18.0758C10.6772 18.9851 12.1511 18.9851 13.0604 18.0758C13.9695 17.1667 13.9695 15.6926 13.0604 14.7835C13.9695 15.6926 15.4436 15.6926 16.3527 14.7835C17.2617 13.8745 17.2617 12.4003 16.3527 11.4913C17.2617 12.4003 18.7359 12.4003 19.645 11.4913C20.5543 10.5819 20.5543 9.10806 19.645 8.19873L15.003 3.55676C14.0939 2.64771 12.6198 2.64771 11.7107 3.55676C10.8017 4.4658 10.8017 5.93997 11.7107 6.84901L12.2922 7.43081C11.3832 6.52148 9.90903 6.52148 8.99999 7.43081C8.09094 8.33986 8.09094 9.81402 8.99999 10.7231L10.1633 11.8864C9.25426 10.9773 7.7801 10.9773 6.87105 11.8864C5.96172 12.7954 5.96172 14.2696 6.87105 15.1787L8.03437 16.3423C7.12504 15.4329 5.65116 15.4329 4.74183 16.3423C3.83278 17.2513 3.83278 18.7252 4.74183 19.6345L6.47564 21.368Z" fill="white"/>
<path d="M20.651 2.01439C20.8117 1.85374 20.9816 1.70609 21.1584 1.56892L20.5232 0.933659C20.1928 0.603019 19.6874 0.521278 19.2696 0.730014L16.5889 2.07039L18.5919 4.07375L20.651 2.01439Z" fill="white"/>
</g>
<defs>
<clipPath id="clip0_17_22">
<rect width="37.0724" height="37" fill="white" transform="translate(0.128143)"/>
</clipPath>
</defs>
</svg>
