<svg width="35" height="33" viewBox="0 0 35 33" fill="none" xmlns="http://www.w3.org/2000/svg">
<g clip-path="url(#clip0_391_114)">
<path d="M16.3745 26.5602C16.4118 26.5952 16.4508 26.6285 16.4915 26.6599C16.5094 26.6737 16.5283 26.6857 16.5467 26.6987C16.5698 26.7151 16.5925 26.732 16.6166 26.7471C16.6391 26.7613 16.6624 26.7736 16.6854 26.7866C16.7068 26.7987 16.7278 26.8114 16.7499 26.8225C16.7736 26.8345 16.7979 26.8446 16.8221 26.8553C16.8449 26.8655 16.8674 26.8763 16.8908 26.8854C16.9145 26.8946 16.9386 26.9021 16.9625 26.9101C16.9875 26.9186 17.0122 26.9276 17.0377 26.9349C17.0617 26.9417 17.0861 26.9468 17.1104 26.9525C17.1365 26.9587 17.1622 26.9656 17.1888 26.9706C17.2167 26.9758 17.2448 26.9789 17.273 26.9827C17.2962 26.9858 17.3191 26.99 17.3428 26.9922C17.3949 26.997 17.4473 26.9997 17.4997 26.9997C17.5521 26.9997 17.6045 26.9971 17.6567 26.9922C17.6806 26.99 17.7038 26.9858 17.7274 26.9826C17.7552 26.9789 17.783 26.9758 17.8106 26.9706C17.8376 26.9656 17.8639 26.9585 17.8906 26.9522C17.9142 26.9465 17.9381 26.9417 17.9615 26.935C17.9876 26.9275 18.0127 26.9183 18.0383 26.9097C18.0617 26.9017 18.0854 26.8945 18.1085 26.8855C18.1324 26.8762 18.1552 26.8653 18.1784 26.8549C18.2023 26.8443 18.2264 26.8343 18.2497 26.8225C18.272 26.8113 18.293 26.7986 18.3145 26.7864C18.3375 26.7734 18.3608 26.7612 18.3832 26.747C18.4068 26.7322 18.4289 26.7156 18.4514 26.6997C18.4704 26.6863 18.4898 26.6739 18.5083 26.6597C18.547 26.6297 18.584 26.598 18.6195 26.5648C18.6212 26.5632 18.623 26.562 18.6247 26.5604L26.0492 19.5606C26.6705 18.9748 26.6705 18.0251 26.0492 17.4393C25.428 16.8535 24.4206 16.8536 23.7993 17.4392L19.0906 21.8785V1.5C19.0906 0.6716 18.3783 0 17.4997 0C16.6211 0 15.9088 0.6716 15.9088 1.5V21.8785L11.2006 17.4394C10.5793 16.8536 9.57192 16.8536 8.95072 17.4394C8.32942 18.0252 8.32942 18.9749 8.95072 19.5607L16.3745 26.5602Z" fill="white"/>
<path d="M33.4091 30H1.59091C0.712303 30 0 30.6716 0 31.5C0 32.3284 0.712303 33 1.59091 33H33.4091C34.2877 33 35 32.3284 35 31.5C35 30.6716 34.2877 30 33.4091 30Z" fill="white"/>
</g>
<defs>
<clipPath id="clip0_391_114">
<rect width="35" height="33" fill="white"/>
</clipPath>
</defs>
</svg>
