<svg width="66" height="66" viewBox="0 0 66 66" fill="none" xmlns="http://www.w3.org/2000/svg">
<path d="M8.24384 20.625C7.10534 20.625 6.18237 19.701 6.18237 18.5625C6.18237 16.2876 8.03244 14.4375 10.3074 14.4375C11.4459 14.4375 12.3699 15.3615 12.3699 16.5C12.3699 17.6385 11.4459 18.5625 10.3074 18.5625H10.3053C10.3053 19.701 9.38337 20.625 8.24384 20.625Z" fill="white"/>
<path d="M37.8283 18.5625H10.3074C9.16887 18.5625 8.24487 17.6385 8.24487 16.5C8.24487 15.3615 9.16887 14.4375 10.3074 14.4375H37.8283C38.9668 14.4375 39.8908 15.3615 39.8908 16.5C39.8908 17.6385 38.9668 18.5625 37.8283 18.5625Z" fill="white"/>
<path d="M8.24487 57.75C7.10637 57.75 6.18237 56.826 6.18237 55.6875V18.5625C6.18237 17.424 7.10637 16.5 8.24487 16.5C9.38337 16.5 10.3074 17.424 10.3074 18.5625V55.6875C10.3074 56.826 9.3844 57.75 8.24487 57.75Z" fill="white"/>
<path d="M10.3074 59.8125C8.03244 59.8125 6.18237 57.9624 6.18237 55.6875C6.18237 54.549 7.10637 53.625 8.24487 53.625C9.38337 53.625 10.3074 54.549 10.3074 55.6875V55.6896C11.4459 55.6896 12.3699 56.6115 12.3699 57.751C12.3699 58.8906 11.4469 59.8125 10.3074 59.8125Z" fill="white"/>
<path d="M47.4324 59.8125H10.3074C9.16887 59.8125 8.24487 58.8885 8.24487 57.75C8.24487 56.6115 9.16887 55.6875 10.3074 55.6875H47.4324C48.5709 55.6875 49.4949 56.6115 49.4949 57.75C49.4949 58.8885 48.5719 59.8125 47.4324 59.8125Z" fill="white"/>
<path d="M47.4324 59.8125C46.2939 59.8125 45.3699 58.8885 45.3699 57.75C45.3699 56.6115 46.2939 55.6875 47.4324 55.6875H47.4344C47.4344 54.549 48.3564 53.625 49.4959 53.625C50.6344 53.625 51.5574 54.549 51.5574 55.6875C51.5574 57.9624 49.7073 59.8125 47.4324 59.8125Z" fill="white"/>
<path d="M49.4949 57.75C48.3564 57.75 47.4324 56.826 47.4324 55.6875V28.1665C47.4324 27.028 48.3564 26.104 49.4949 26.104C50.6334 26.104 51.5574 27.028 51.5574 28.1665V55.6875C51.5574 56.826 50.6344 57.75 49.4949 57.75Z" fill="white"/>
<path d="M28.8699 39.1875C28.3419 39.1875 27.8139 38.9864 27.4117 38.5832C26.6063 37.7778 26.6063 36.4722 27.4117 35.6668L56.2867 6.7918C57.091 5.98639 58.3987 5.98639 59.203 6.7918C60.0085 7.59721 60.0085 8.90277 59.203 9.70817L30.328 38.5832C29.9259 38.9864 29.3979 39.1875 28.8699 39.1875Z" fill="white"/>
<path d="M57.7449 10.3125H43.3074C42.1689 10.3125 41.2449 9.3885 41.2449 8.25C41.2449 7.1115 42.1689 6.1875 43.3074 6.1875H57.7449C58.8834 6.1875 59.8074 7.1115 59.8074 8.25C59.8074 9.3885 58.8844 10.3125 57.7449 10.3125Z" fill="white"/>
<path d="M57.7449 24.75C56.6064 24.75 55.6824 23.826 55.6824 22.6875V8.25C55.6824 7.1115 56.6064 6.1875 57.7449 6.1875C58.8834 6.1875 59.8074 7.1115 59.8074 8.25V22.6875C59.8074 23.826 58.8844 24.75 57.7449 24.75Z" fill="white"/>
</svg>
