<svg width="71" height="40" viewBox="0 0 71 40" fill="none" xmlns="http://www.w3.org/2000/svg">
<path d="M0 39.8916V17.3487L8.33139 9.28084V26.5072L20.097 9.28044H27.9619V39.8916H19.6306V22.6649L7.86502 39.8916H0Z" fill="url(#paint0_linear_23_436)"/>
<path d="M41.1121 23.7058C41.1121 21.4999 41.5148 19.4222 42.3204 17.4725C43.1401 15.5087 44.2495 13.8223 45.6488 12.4133C47.062 10.9902 48.765 9.86603 50.7579 9.04065C52.7505 8.21526 54.8775 7.80251 57.1388 7.80251C62.5513 7.80251 66.8054 9.95865 69.9013 14.2705L63.7321 19.0736C61.8515 16.711 59.619 15.5299 57.0328 15.5299C54.9269 15.5299 53.1886 16.3198 51.8178 17.8995C50.461 19.4648 49.7826 21.4003 49.7826 23.7058C49.7826 26.0254 50.461 27.9679 51.8178 29.5334C53.1886 31.0988 54.9269 31.8816 57.0328 31.8816C58.5167 31.8816 59.7745 31.5754 60.8063 30.9636C61.8515 30.3374 62.8839 29.4054 63.9017 28.1671L70.2392 32.714C69.2082 34.1371 68.1135 35.3324 66.9539 36.3003C65.8088 37.268 64.3603 38.0649 62.6083 38.6911C60.8699 39.3172 58.9266 39.6304 56.7783 39.6304C53.9095 39.6304 51.2808 38.9544 48.8923 37.6024C46.5038 36.2363 44.61 34.3364 43.2108 31.9029C41.8117 29.4551 41.1121 26.7228 41.1121 23.7058Z" fill="url(#paint1_linear_23_436)"/>
<path d="M21.2047 7.45007L25.8432 0H48.2772V7.45007H39.1404V33.5083L30.7242 39.7371V7.45007H21.2047Z" fill="url(#paint2_linear_23_436)"/>
<defs>
<linearGradient id="paint0_linear_23_436" x1="13.9809" y1="9.28044" x2="13.9809" y2="39.8916" gradientUnits="userSpaceOnUse">
<stop stop-color="#17786C"/>
<stop offset="1" stop-color="#00CBD9"/>
</linearGradient>
<linearGradient id="paint1_linear_23_436" x1="55.676" y1="7.80251" x2="55.676" y2="39.6304" gradientUnits="userSpaceOnUse">
<stop stop-color="#17786C"/>
<stop offset="1" stop-color="#00CBD9"/>
</linearGradient>
<linearGradient id="paint2_linear_23_436" x1="34.741" y1="0" x2="34.741" y2="39.7371" gradientUnits="userSpaceOnUse">
<stop stop-color="#17786C"/>
<stop offset="1" stop-color="#00CBD9"/>
</linearGradient>
</defs>
</svg>
