<svg width="134" height="134" viewBox="0 0 134 134" fill="none" xmlns="http://www.w3.org/2000/svg">
<path d="M128.536 67.4124L130.905 67.6231L130.188 75.6778L127.819 75.4671L128.062 72.7427L113.847 71.4786L114.079 68.8727L128.293 70.1368L128.536 67.4124Z" fill="white"/>
<path d="M125.044 81.7067L116.423 79.1586C115.282 78.8215 114.701 79.1952 114.465 79.9935C114.229 80.7918 114.514 81.4217 115.654 81.7587L124.276 84.3068C125.416 84.6439 125.998 84.2702 126.234 83.4719C126.47 82.6736 126.185 82.0437 125.044 81.7067ZM117.324 76.6968L125.626 79.1506C128.181 79.9056 129.243 81.6827 128.515 84.146C127.787 86.6093 125.929 87.5236 123.375 86.7686L115.072 84.3148C112.518 83.5598 111.456 81.7827 112.184 79.3194C112.912 76.8561 114.769 75.9418 117.324 76.6968Z" fill="white"/>
<path d="M121.791 94.4761L109.321 87.5372L110.593 85.2511L125.141 93.3464L121.128 100.558L106.58 92.4628L107.875 90.1351L120.345 97.0739L121.791 94.4761Z" fill="white"/>
<path d="M110.48 99.296L112.307 100.818L109.263 104.473L107.435 102.951L110.48 99.296Z" fill="white"/>
<path d="M107.768 112.721L98.6748 101.723L100.691 100.056L111.3 112.887L104.939 118.146L94.3306 105.315L96.3835 103.617L105.477 114.615L107.768 112.721Z" fill="white"/>
<path d="M96.362 123.446C94.0438 124.659 92.2333 123.968 90.9987 121.608L89.9956 119.69C88.761 117.33 89.2266 115.449 91.5448 114.236L92.6407 113.663L89.7416 108.12L92.0598 106.908L99.7762 121.66L96.362 123.446ZM95.2597 121.339L96.3556 120.765L93.7431 115.771L92.6472 116.344C91.9095 116.73 91.6855 117.276 92.2367 118.33L93.3941 120.543C93.9453 121.597 94.5221 121.724 95.2597 121.339Z" fill="white"/>
<path d="M85.4691 123.949L82.9536 115.318C82.6209 114.177 81.9921 113.889 81.1929 114.122C80.3937 114.355 80.0178 114.935 80.3506 116.077L82.866 124.708C83.1988 125.85 83.8276 126.137 84.6267 125.904C85.4259 125.671 85.8018 125.091 85.4691 123.949ZM85.5119 114.746L87.9342 123.058C88.6796 125.615 87.7583 127.469 85.2922 128.188C82.8261 128.906 81.0531 127.838 80.3077 125.28L77.8854 116.969C77.1401 114.411 78.0614 112.557 80.5275 111.839C82.9935 111.12 84.7666 112.189 85.5119 114.746Z" fill="white"/>
<path d="M73.1948 128.037L72.8018 123.416L69.2233 123.721L69.0218 121.351L72.6002 121.046L72.187 116.188L67.6844 116.571L67.4828 114.201L74.5923 113.597L76.0032 130.185L68.8937 130.79L68.6922 128.42L73.1948 128.037Z" fill="white"/>
<path d="M59.6434 113.614L61.4057 120.499L62.3846 119.08L62.9745 114.001L65.5733 114.303L63.6525 130.84L61.0537 130.538L61.8906 123.333L57.6517 130.143L55.053 129.841L59.5237 122.89L56.9738 113.304L59.6434 113.614Z" fill="white"/>
<path d="M52.031 126.82L51.2968 129.083L43.6053 126.586L44.3394 124.324L46.941 125.169L51.3461 111.595L53.8345 112.403L49.4294 125.976L52.031 126.82Z" fill="white"/>
<path d="M27.9993 115.021L26.3798 116.763L20.4578 111.257L22.0774 109.515L24.0804 111.377L33.7978 100.927L35.7137 102.708L25.9963 113.159L27.9993 115.021Z" fill="white"/>
<path d="M18.9216 103.562L26.2111 98.3C27.1753 97.604 27.2355 96.9152 26.7483 96.2403C26.2611 95.5653 25.5884 95.4055 24.6242 96.1016L17.3347 101.363C16.3704 102.06 16.3103 102.748 16.7975 103.423C17.2847 104.098 17.9574 104.258 18.9216 103.562ZM27.6074 100.519L20.5878 105.586C18.428 107.145 16.3725 106.898 14.8691 104.815C13.3656 102.733 13.7785 100.704 15.9384 99.1448L22.9579 94.0777C25.1178 92.5186 27.1733 92.7655 28.6767 94.8482C30.1801 96.9309 29.7672 98.9596 27.6074 100.519Z" fill="white"/>
<path d="M10.8124 93.1757L23.9346 87.5676L24.9627 89.9734L9.65353 96.5161L6.41021 88.9271L21.7194 82.3844L22.7662 84.8339L9.64407 90.4419L10.8124 93.1757Z" fill="white"/>
<path d="M13.9271 81.307L11.6036 81.8148L10.5878 77.1678L12.9114 76.6599L13.9271 81.307Z" fill="white"/>
<path d="M4.99234 71.0826L19.2558 70.642L19.3366 73.257L2.69586 73.7709L2.44108 65.5219L19.0818 65.0079L19.164 67.6704L4.90056 68.111L4.99234 71.0826Z" fill="white"/>
<path d="M3.51883 55.2323C3.98933 52.6587 5.64746 51.6563 8.26782 52.1353L10.3969 52.5245C13.0172 53.0036 14.2134 54.5279 13.7429 57.1015L13.5205 58.3181L19.6736 59.443L19.2031 62.0166L2.8259 59.0224L3.51883 55.2323ZM5.85843 55.66L5.63601 56.8766L11.1809 57.8903L11.4033 56.6737C11.553 55.8549 11.2599 55.3419 10.0901 55.128L7.63354 54.6789C6.46374 54.4651 6.00814 54.8412 5.85843 55.66Z" fill="white"/>
<path d="M9.83628 46.2308L18.1804 49.5776C19.2841 50.0203 19.8983 49.7029 20.2082 48.9303C20.5181 48.1577 20.2934 47.5038 19.1897 47.0611L10.8456 43.7143C9.74192 43.2717 9.12772 43.5891 8.81783 44.3617C8.50794 45.1343 8.73257 45.7881 9.83628 46.2308ZM17.0519 51.9438L9.01687 48.721C6.54454 47.7293 5.65417 45.8603 6.6104 43.4763C7.56663 41.0922 9.50177 40.3565 11.9741 41.3482L20.0091 44.571C22.4815 45.5626 23.3718 47.4317 22.4156 49.8157C21.4594 52.1997 19.5242 52.9355 17.0519 51.9438Z" fill="white"/>
<path d="M14.0628 34.1993L17.9481 36.7319L19.9092 33.7233L21.9017 35.022L19.9405 38.0306L24.0251 40.6931L26.4927 36.9074L28.4852 38.2062L24.5889 44.1836L10.6417 35.0922L14.5379 29.1149L16.5304 30.4136L14.0628 34.1993Z" fill="white"/>
<path d="M33.6046 32.5085L27.0818 29.6868L27.6043 31.3293L31.2593 34.9055L29.4296 36.7755L17.5296 25.1322L19.3593 23.2622L24.5443 28.3353L21.7545 20.8142L23.5842 18.9442L26.3432 26.7348L35.4841 30.5875L33.6046 32.5085Z" fill="white"/>
<path d="M27.7833 18.3958L26.4411 16.4324L33.1168 11.8688L34.459 13.8322L32.2011 15.3758L40.2545 27.1564L38.0947 28.6329L30.0413 16.8523L27.7833 18.3958Z" fill="white"/>
<path d="M51.7285 6.50338L51.3456 4.15602L59.3266 2.85425L59.7095 5.2016L57.01 5.64191L59.3073 19.7261L56.7252 20.1472L54.4279 6.06307L51.7285 6.50338Z" fill="white"/>
<path d="M66.6711 6.30533L66.3243 15.2889C66.2784 16.4772 66.7838 16.949 67.6156 16.9811C68.4474 17.0132 68.9877 16.5818 69.0336 15.3935L69.3805 6.40994C69.4264 5.22164 68.9209 4.74989 68.0891 4.71778C67.2573 4.68566 66.717 5.11703 66.6711 6.30533ZM63.7164 15.0216L64.0505 6.37075C64.1532 3.70895 65.6142 2.24206 68.1809 2.34117C70.7476 2.44028 72.0911 4.01545 71.9883 6.67725L71.6543 15.3281C71.5515 17.9899 70.0906 19.4568 67.5238 19.3577C64.9571 19.2586 63.6136 17.6834 63.7164 15.0216Z" fill="white"/>
<path d="M79.7929 6.24961L76.165 20.051L73.6347 19.3859L77.8672 3.28427L85.8491 5.38239L81.6165 21.484L79.0403 20.8068L82.6681 7.00542L79.7929 6.24961Z" fill="white"/>
<path d="M87.2044 15.9443L88.2278 13.7974L92.5216 15.8443L91.4982 17.9913L87.2044 15.9443Z" fill="white"/>
<path d="M100.958 15.2522L92.5215 26.7615L90.4115 25.2148L100.254 11.7872L106.91 16.6664L97.0677 30.0939L94.9193 28.5191L103.356 17.0098L100.958 15.2522Z" fill="white"/>
<path d="M114.2 23.6558C115.947 25.6038 115.724 27.5286 113.74 29.3067L112.129 30.7515C110.146 32.5297 108.208 32.5418 106.462 30.5938L105.636 29.673L100.979 33.8485L99.2321 31.9005L111.628 20.787L114.2 23.6558ZM112.43 25.2435L111.604 24.3226L107.407 28.0853L108.232 29.0062C108.788 29.626 109.373 29.7085 110.259 28.9146L112.118 27.2476C113.003 26.4538 112.985 25.8633 112.43 25.2435Z" fill="white"/>
<path d="M117.423 34.0863L109.683 38.659C108.659 39.2638 108.536 39.9442 108.959 40.6609C109.383 41.3776 110.038 41.5983 111.062 40.9934L118.802 36.4208C119.826 35.8159 119.949 35.1356 119.526 34.4189C119.102 33.7021 118.447 33.4815 117.423 34.0863ZM108.496 36.3218L115.949 31.9185C118.243 30.5636 120.267 30.9976 121.574 33.2092C122.88 35.4207 122.283 37.4031 119.99 38.758L112.536 43.1613C110.242 44.5161 108.218 44.0822 106.912 41.8706C105.605 39.659 106.202 37.6766 108.496 36.3218Z" fill="white"/>
<path d="M124.424 44.8591L120.046 46.3901L121.232 49.7801L118.987 50.5652L117.801 47.1752L113.199 48.7847L114.691 53.0503L112.445 53.8355L110.09 47.1003L125.805 41.6044L128.161 48.3396L125.916 49.1247L124.424 44.8591Z" fill="white"/>
<path d="M113.839 61.5575L120.073 58.1437L118.455 57.547L113.388 58.2344L113.037 55.6419L129.534 53.4038L129.886 55.9963L122.698 56.9715L130.346 59.3901L130.698 61.9825L122.856 59.3742L114.2 64.2206L113.839 61.5575Z" fill="white"/>
<path d="M20.8487 79.8997C13.2007 54.4767 27.6102 27.6673 53.0333 20.0193C78.4563 12.3712 105.266 26.7808 112.914 52.2038C120.562 77.6269 106.152 104.436 80.7292 112.084C55.3061 119.732 28.4967 105.323 20.8487 79.8997Z" fill="white"/>
<path d="M49 83.5616H85.5942V46.9674H49V83.5616Z" fill="white"/>
</svg>
