<svg width="41" height="40" viewBox="0 0 41 40" fill="none" xmlns="http://www.w3.org/2000/svg">
<g clip-path="url(#clip0_17_94)">
<path d="M36.6722 10.7044C37.2346 9.95034 37.5678 9.01589 37.5678 8.00503C37.5678 5.50987 35.5379 3.48003 33.0428 3.48003C30.5478 3.48003 28.5178 5.50987 28.5178 8.00503C28.5178 9.01823 28.8526 9.95479 29.4173 10.7098C28.3523 11.1732 27.4394 11.921 26.7733 12.8568C26.1047 11.9175 25.1875 11.1673 24.1175 10.7043C24.6798 9.95026 25.0131 9.01581 25.0131 8.00495C25.0131 5.50979 22.9832 3.47995 20.4881 3.47995C17.993 3.47995 15.9631 5.50979 15.9631 8.00495C15.9631 9.01815 16.2978 9.95472 16.8625 10.7097C15.7996 11.1721 14.8882 11.918 14.2225 12.8513C13.5543 11.9146 12.6386 11.1664 11.5706 10.7043C12.1329 9.95026 12.4662 9.01581 12.4662 8.00495C12.4662 5.50979 10.4363 3.47995 7.94121 3.47995C5.44613 3.47995 3.41621 5.50979 3.41621 8.00495C3.41621 9.01815 3.75097 9.95472 4.31566 10.7097C2.3948 11.5456 0.96644 13.3064 0.595581 15.4267H40.4043C40.0327 13.302 38.5992 11.5381 36.6722 10.7044Z" fill="white"/>
<path d="M40.5 21.0208V17.7704H30.5007C29.8829 22.7402 25.6343 26.5994 20.5 26.5994C15.3657 26.5994 11.1171 22.7402 10.4993 17.7704H0.5V21.0207L4.28258 21.755C4.56195 22.6183 4.9107 23.4591 5.32492 24.2676L3.1643 27.4621L7.63391 31.9409L9.52266 33.8335L12.7214 31.6795C13.5393 32.1005 14.3904 32.4546 15.265 32.7375L15.9992 36.5201H25.0005L25.7348 32.7375C26.5979 32.4583 27.4388 32.1094 28.2474 31.6952L31.442 33.8558L37.8133 27.4973L35.6592 24.2986C36.0802 23.4808 36.4343 22.6295 36.7172 21.755L40.5 21.0208Z" fill="white"/>
</g>
<defs>
<clipPath id="clip0_17_94">
<rect width="40" height="40" fill="white" transform="translate(0.5)"/>
</clipPath>
</defs>
</svg>
