<svg width="17" height="17" viewBox="0 0 17 17" fill="none" xmlns="http://www.w3.org/2000/svg">
<path d="M2.16248 6.60742H12.9688C13.2257 6.60742 13.4733 6.52364 13.6849 6.37772L14.7902 5.61224C15.1317 5.3767 15.3356 4.98682 15.3356 4.57204C15.3356 4.15739 15.1317 3.7683 14.7902 3.53276L13.6849 2.77505C13.4733 2.62927 13.2257 2.55664 12.9688 2.55664H2.16248C1.88752 2.55664 1.66016 2.76987 1.66016 3.04483V6.09602C1.66016 6.37111 1.88752 6.60742 2.16248 6.60742Z" fill="white"/>
<path d="M9.86133 1.56055V1.2909C9.86133 0.579109 9.2782 0 8.56641 0C7.85461 0 7.27148 0.579109 7.27148 1.2909V1.56055H9.86133Z" fill="white"/>
<path d="M11.2011 16.0039H9.86115V12.6504H7.27131V16.0039H5.95654C5.68145 16.0039 5.4585 16.2269 5.4585 16.502C5.4585 16.777 5.68145 17 5.95654 17H11.2011C11.4762 17 11.6991 16.777 11.6991 16.502C11.6991 16.2269 11.4762 16.0039 11.2011 16.0039Z" fill="white"/>
<path d="M14.8376 7.60352H4.03131C3.77438 7.60352 3.52678 7.679 3.31524 7.82491L2.20994 8.58638C1.86844 8.82178 1.66455 9.20959 1.66455 9.62437C1.66455 10.0391 1.86844 10.4272 2.20994 10.6626L3.31524 11.4281C3.52678 11.5739 3.77438 11.6543 4.03131 11.6543H14.8376C15.1127 11.6543 15.34 11.4246 15.34 11.1496V8.09845C15.34 7.82336 15.1126 7.60352 14.8376 7.60352Z" fill="white"/>
</svg>
