<svg width="20" height="13" viewBox="0 0 20 13" fill="none" xmlns="http://www.w3.org/2000/svg">
<path d="M19.9661 12.9998V0.380249L13.4419 5.29882C13.3036 5.40305 13.2845 5.60342 13.4006 5.7319L19.9661 12.9998Z" fill="white"/>
<path d="M0.0341797 0.380249V12.9998L6.59969 5.7319C6.71576 5.60342 6.69666 5.40305 6.5584 5.29882L0.0341797 0.380249Z" fill="white"/>
<path d="M18.82 0.0234375H1.18066L9.84556 5.3668C9.94044 5.42531 10.0602 5.42531 10.1551 5.3668L18.82 0.0234375Z" fill="white"/>
<path d="M11.7841 6.69052C11.6868 6.60246 11.5431 6.58925 11.4314 6.65812L10.4643 7.25457C10.3219 7.34234 10.1611 7.3861 10.0001 7.3861C9.83908 7.3861 9.67807 7.34234 9.53571 7.25457L8.56855 6.65812C8.45688 6.58925 8.31313 6.60246 8.21588 6.69053L1.27051 12.9797H18.7297L11.7841 6.69052Z" fill="white"/>
</svg>
