<svg width="15" height="15" viewBox="0 0 15 15" fill="none" xmlns="http://www.w3.org/2000/svg">
<g clip-path="url(#clip0_89_256)">
<path d="M13.9782 9.97545C13.2163 9.36312 12.5173 9.06543 11.8414 9.06543C10.8636 9.06543 10.1596 9.68742 9.52224 10.3246C9.44894 10.398 9.36019 10.4321 9.24299 10.4321C8.70589 10.4322 7.761 9.75957 6.43459 8.433C4.87413 6.87244 4.28415 5.87989 4.68086 5.48302C5.75632 4.40793 6.09206 3.33017 4.44546 1.28237C3.856 0.54871 3.27927 0.192139 2.68234 0.192139C1.87732 0.192139 1.26535 0.835637 0.72543 1.40344C0.632085 1.50158 0.543908 1.5943 0.457454 1.68076C-0.152789 2.29095 -0.152476 3.6219 0.458341 5.24125C1.12852 7.01799 2.45175 8.95079 4.18433 10.6836C5.52421 12.0234 6.98208 13.1062 8.40043 13.8331C9.63871 14.4679 10.8398 14.808 11.7825 14.808C11.7826 14.808 11.7827 14.808 11.7829 14.808C12.3728 14.808 12.852 14.6793 13.1685 14.4175C13.8114 13.886 15.008 12.9015 15 11.7321C14.9956 11.1049 14.6519 10.5171 13.9782 9.97545Z" fill="white"/>
</g>
<defs>
<clipPath id="clip0_89_256">
<rect width="15" height="15" fill="white"/>
</clipPath>
</defs>
</svg>
