<svg width="43" height="39" viewBox="0 0 43 39" fill="none" xmlns="http://www.w3.org/2000/svg">
<path d="M0.759507 18.7325L10.6676 22.4305L14.5026 34.7639C14.748 35.5538 15.7139 35.8457 16.355 35.3216L21.878 30.8192C22.4569 30.3475 23.2815 30.324 23.8865 30.7632L33.8479 37.9953C34.5337 38.4938 35.5054 38.118 35.6774 37.2893L42.9746 2.18822C43.1624 1.28292 42.2729 0.527701 41.4108 0.861095L0.747897 16.5476C-0.25558 16.9346 -0.246836 18.3554 0.759507 18.7325ZM13.8845 20.4619L33.2486 8.53559C33.5966 8.32188 33.9546 8.79245 33.6558 9.06965L17.6748 23.9247C17.1131 24.4476 16.7508 25.1474 16.6481 25.9069L16.1038 29.9411C16.0317 30.4798 15.275 30.5332 15.1264 30.0119L13.0327 22.6554C12.7929 21.8163 13.1424 20.92 13.8845 20.4619Z" fill="#00C9D7"/>
</svg>
